Coordinates
version=1
nRows=6
nColumns=107
inDegrees=yes

Units are S.I. units (second, meters, Newtons, ...)
If the header above contains a line with 'inDegrees', this indicates whether rotational values are in degrees (yes) or radians (no).

endheader
time	sternoclavicular_r2	sternoclavicular_r3	unrotscap_r3	unrotscap_r2	acromioclavicular_r2	acromioclavicular_r3	acromioclavicular_r1	unrothum_r1	unrothum_r3	unrothum_r2	elv_angle	shoulder_elv	shoulder1_r2	shoulder_rot	elbow_flexion	pro_sup	deviation	flexion	proximal_distal_r1	proximal_distal_r3	cmc_flexion	cmc_abduction	mp_flexion	ip_flexion	mcp2_flexion	mcp2_abduction	pm2_flexion	md2_flexion	mcp3_flexion	mcp3_abduction	pm3_flexion	md3_flexion	mcp4_flexion	mcp4_abduction	pm4_flexion	md4_flexion	mcp5_flexion	mcp5_abduction	pm5_flexion	md5_flexion	bicpt_tx	bicpt_ty	bicpt_tz	bicpt2_tx	bicpt2_ty	bicpt2_tz	ptpt_tx	ptpt_ty	ptpt_tz	FCUpt_tx	FCUpt_ty	FCUpt_tz	EDCpt_tx	EDCpt_ty	EDCpt_tz	APLpt_tx	APLpt_ty	APLpt_tz	FPLpt_tx	FPLpt_ty	FPLpt_tz	FPLpt2_tx	FPLpt2_ty	FPLpt2_tz	PEC1pt2_tx	PEC1pt2_ty	PEC1pt2_tz	PEC1pt3_tx	PEC1pt3_ty	PEC1pt3_tz	PEC2pt2_tx	PEC2pt2_ty	PEC2pt2_tz	PEC2pt3_tx	PEC2pt3_ty	PEC2pt3_tz	PEC3pt2_tx	PEC3pt2_ty	PEC3pt2_tz	PEC3pt3_tx	PEC3pt3_ty	PEC3pt3_tz	DELT2pt2a_tx	DELT2pt2a_ty	DELT2pt2a_tz	DELT2pt2_tx	DELT2pt2_ty	DELT2pt2_tz	LAT1pt2_tx	LAT1pt2_ty	LAT1pt2_tz	LAT1pt3_tx	LAT1pt3_ty	LAT1pt3_tz	LAT2pt2_tx	LAT2pt2_ty	LAT2pt2_tz	LAT2pt3_tx	LAT2pt3_ty	LAT2pt3_tz	LAT3pt2_tx	LAT3pt2_ty	LAT3pt2_tz	LAT3pt3_tx	LAT3pt3_ty	LAT3pt3_tz
      0.00000000	     -0.32251635	      0.13660270	     -0.13660270	      0.32251635	     -0.06530300	      0.52775587	      0.23722263	     -0.23722263	     -0.52775587	      0.06530300	     98.31632462	     76.35861179	     -1.71594357	    -18.95331351	     28.64777864	      8.51264212	     -0.02415345	     -0.88866935	     -0.03325648	     -0.44433468	     -9.07650179	     -2.33042905	    -34.18825021	      3.67738399	      3.17886641	      8.83706549	     11.21606332	    -24.35868890	     43.61542850	     11.62866890	     86.94336365	     74.50932547	     37.68394269	     -5.59587719	     87.72596343	     55.61683870	     -7.98450944	     -1.44644491	    -16.17194712	      4.96829955	      0.00084758	     -0.03088347	     -0.00482888	      0.01538153	     -0.01798231	     -0.01013632	      0.00692101	     -0.06530671	     -0.00073574	      0.00476313	     -0.18400932	      0.00021041	     -0.00102151	      0.00025237	      0.00010381	      0.00024787	      0.00009915	      0.00049574	      0.00031727	      0.00095182	      0.00053540	     -0.00109981	      0.00027268	      0.00032722	      0.00250287	      0.00878125	      0.00610869	     -0.00818735	      0.01976841	     -0.01875030	      0.00250287	      0.00878125	      0.00610869	      0.00055148	      0.01832608	     -0.00962968	      0.00395519	      0.00488314	      0.01598533	      0.00000000	      0.00779795	      0.00000000	     -0.00716923	     -0.03313118	     -0.00642987	      0.01316493	     -0.00040001	     -0.00294356	     -0.00089085	      0.01493236	     -0.00610869	      0.00246045	      0.02155012	     -0.01781702	     -0.00598143	      0.01293855	     -0.00547237	     -0.01247192	      0.02731944	     -0.03058589	     -0.02341666	      0.01446573	     -0.00733892	     -0.01552626	      0.03156159	     -0.03822176
      0.03333333	     -0.32240376	      0.13655502	     -0.13655502	      0.32240376	     -0.06528020	      0.52757164	      0.23713982	     -0.23713982	     -0.52757164	      0.06528020	     98.29782594	     76.33195647	     -1.71562071	    -18.95607544	     28.62756932	      8.50928583	     -0.02415387	     -0.88864218	     -0.03325773	     -0.44432109	     -9.07613481	     -2.33050204	    -34.18832007	      3.67717858	      3.18143030	      8.83550566	     11.21664720	    -24.35820597	     43.61515661	     11.62849013	     86.94335570	     74.50905337	     37.68378329	     -5.59596086	     87.72632158	     55.61692523	     -7.98389089	     -1.44718150	    -16.17196736	      4.96830027	      0.00084691	     -0.03088116	     -0.00482851	      0.01538124	     -0.01797682	     -0.01013651	      0.00692126	     -0.06530655	     -0.00073547	      0.00476283	     -0.18400935	      0.00021053	     -0.00102111	      0.00025227	      0.00010376	      0.00024788	      0.00009915	      0.00049576	      0.00031729	      0.00095187	      0.00053543	     -0.00109974	      0.00027267	      0.00032720	      0.00250199	      0.00877818	      0.00610656	     -0.00818449	      0.01976151	     -0.01874375	      0.00250199	      0.00877818	      0.00610656	      0.00055129	      0.01831969	     -0.00962632	      0.00395418	      0.00488144	      0.01598288	      0.00000000	      0.00779247	      0.00000000	     -0.00716673	     -0.03311962	     -0.00642532	      0.01316657	     -0.00040009	     -0.00294447	     -0.00089054	      0.01492715	     -0.00610656	      0.00245959	      0.02154259	     -0.01781080	     -0.00597934	      0.01293404	     -0.00547046	     -0.01246756	      0.02730990	     -0.03057522	     -0.02340849	      0.01446068	     -0.00733636	     -0.01552084	      0.03155057	     -0.03820842
      0.06666667	     -0.32022599	      0.13563262	     -0.13563262	      0.32022599	     -0.06483925	      0.52400801	      0.23553799	     -0.23553799	     -0.52400801	      0.06483925	     98.85878203	     75.81635017	     -1.72541124	    -21.54860243	     28.48802283	     10.13987235	     -0.03777651	     -0.89095717	     -0.05243599	     -0.44547859	     -8.97420056	     -2.06086666	    -34.49714196	      1.66410153	      3.99292636	      8.36636295	     10.95386223	    -23.78047200	     43.70937896	     11.29421938	     87.04961310	     73.19696977	     37.37038962	     -6.14422071	     88.81514061	     55.42621827	     -8.25494475	     -1.54941087	    -16.42672007	      4.97925876	      0.00084230	     -0.03086516	     -0.00482593	      0.01549873	     -0.01793891	     -0.01003258	      0.00680078	     -0.06538446	     -0.00086682	      0.00491155	     -0.18398964	      0.00016128	     -0.00121678	      0.00030316	      0.00011917	      0.00024680	      0.00009872	      0.00049361	      0.00031591	      0.00094773	      0.00053310	     -0.00107517	      0.00026910	      0.00032292	      0.00248509	      0.00871889	      0.00606531	     -0.00812920	      0.01962803	     -0.01861714	      0.00248509	      0.00871889	      0.00606531	      0.00054756	      0.01819594	     -0.00956129	      0.00393464	      0.00484846	      0.01593505	      0.00000000	      0.00768683	      0.00000000	     -0.00711832	     -0.03289590	     -0.00633762	      0.01465384	     -0.00047997	     -0.00385448	     -0.00088452	      0.01482632	     -0.00606531	      0.00244297	      0.02139708	     -0.01769050	     -0.00593895	      0.01284667	     -0.00543351	     -0.01238335	      0.02712543	     -0.03036869	     -0.02325037	      0.01436300	     -0.00728680	     -0.01541600	      0.03133745	     -0.03795033
      0.10000000	     -0.32071510	      0.13583978	     -0.13583978	      0.32071510	     -0.06493828	      0.52480836	      0.23589775	     -0.23589775	     -0.52480836	      0.06493828	     98.74531425	     75.93214982	     -1.72343085	    -20.93852097	     28.44992571	      9.44148367	     -0.03429605	     -0.88826534	     -0.04750663	     -0.44413267	     -8.93249314	     -2.05875499	    -34.60035550	      1.58480881	      4.09854689	      8.31596376	     10.87656865	    -23.69596589	     43.52274385	     11.24563461	     87.05851513	     73.09172389	     37.31460212	     -6.12619905	     88.91210733	     55.58588314	     -8.30936282	     -1.50829863	    -16.30319970	      4.97408577	      0.00084104	     -0.03086080	     -0.00482523	      0.01544914	     -0.01792856	     -0.01007755	      0.00685238	     -0.06535109	     -0.00081056	      0.00484775	     -0.18399818	      0.00018213	     -0.00113298	      0.00028126	      0.00011275	      0.00024806	      0.00009922	      0.00049612	      0.00031752	      0.00095255	      0.00053581	     -0.00106519	      0.00026764	      0.00032117	      0.00248889	      0.00873220	      0.00607458	     -0.00814162	      0.01965801	     -0.01864558	      0.00248889	      0.00873220	      0.00607458	      0.00054840	      0.01822373	     -0.00957590	      0.00393904	      0.00485587	      0.01594584	      0.00000000	      0.00771049	      0.00000000	     -0.00712919	     -0.03294614	     -0.00635726	      0.01431198	     -0.00046093	     -0.00363085	     -0.00088588	      0.01484897	     -0.00607458	      0.00244670	      0.02142976	     -0.01771752	     -0.00594802	      0.01286629	     -0.00544181	     -0.01240226	      0.02716686	     -0.03041507	     -0.02328588	      0.01438494	     -0.00729793	     -0.01543955	      0.03138532	     -0.03800829
      0.13333333	     -0.32066522	      0.13581865	     -0.13581865	      0.32066522	     -0.06492818	      0.52472675	      0.23586106	     -0.23586106	     -0.52472675	      0.06492818	     98.73319151	     75.92034169	     -1.72321927	    -20.94106807	     28.43836390	      9.44022599	     -0.03429012	     -0.88825562	     -0.04749893	     -0.44412781	     -8.93240477	     -2.05882868	    -34.60033708	      1.58479316	      4.09963054	      8.31507231	     10.87687330	    -23.69578644	     43.52278286	     11.24554235	     87.05854458	     73.09176653	     37.31440271	     -6.12632918	     88.91196906	     55.58584610	     -8.30907895	     -1.50835158	    -16.30313707	      4.97410725	      0.00084065	     -0.03085947	     -0.00482502	      0.01544905	     -0.01792542	     -0.01007762	      0.00685247	     -0.06535103	     -0.00081046	      0.00484764	     -0.18399819	      0.00018217	     -0.00113282	      0.00028123	      0.00011273	      0.00024806	      0.00009922	      0.00049612	      0.00031752	      0.00095256	      0.00053581	     -0.00106521	      0.00026764	      0.00032116	      0.00248850	      0.00873085	      0.00607363	     -0.00814035	      0.01965495	     -0.01864268	      0.00248850	      0.00873085	      0.00607363	      0.00054831	      0.01822090	     -0.00957441	      0.00393859	      0.00485511	      0.01594475	      0.00000000	      0.00770808	      0.00000000	     -0.00712808	     -0.03294102	     -0.00635526	      0.01431338	     -0.00046101	     -0.00363181	     -0.00088574	      0.01484666	     -0.00607363	      0.00244632	      0.02142643	     -0.01771476	     -0.00594710	      0.01286429	     -0.00544096	     -0.01240033	      0.02716263	     -0.03041034	     -0.02328226	      0.01438270	     -0.00729679	     -0.01543715	      0.03138043	     -0.03800238
      0.16666667	     -0.31838216	      0.13485165	     -0.13485165	      0.31838216	     -0.06446591	      0.52099081	      0.23418178	     -0.23418178	     -0.52099081	      0.06446591	     99.30396643	     75.37980558	     -1.73318117	    -23.84720915	     28.49679462	     12.26702238	     -0.03370603	     -0.86125540	     -0.04667314	     -0.43062770	     -8.90227493	     -1.67057249	    -34.68352418	      1.12520172	      4.52718266	      8.08096412	     10.91233046	    -24.99775442	     43.56882624	     11.16243434	     87.05348467	     73.21285289	     37.34574393	     -6.14188541	     88.88997816	     55.43150163	     -8.13530950	     -1.47957315	    -16.56174395	      4.98089158	      0.00084259	     -0.03086617	     -0.00482609	      0.01564283	     -0.01794129	     -0.00989139	      0.00664361	     -0.06548609	     -0.00103817	      0.00510680	     -0.18396278	      0.00010005	     -0.00147204	      0.00037079	      0.00013710	      0.00026000	      0.00010400	      0.00051999	      0.00033280	      0.00099839	      0.00056159	     -0.00105803	      0.00026658	      0.00031990	      0.00247078	      0.00866868	      0.00603039	     -0.00808240	      0.01951501	     -0.01850995	      0.00247078	      0.00866868	      0.00603039	      0.00054441	      0.01809117	     -0.00950624	      0.00391803	      0.00482055	      0.01589405	      0.00000000	      0.00759796	      0.00000000	     -0.00707733	     -0.03270649	     -0.00626383	      0.01589738	     -0.00055293	     -0.00474709	     -0.00087943	      0.01474095	     -0.00603039	      0.00242891	      0.02127387	     -0.01758864	     -0.00590476	      0.01277270	     -0.00540222	     -0.01231205	      0.02696924	     -0.03019383	     -0.02311649	      0.01428030	     -0.00724484	     -0.01532724	      0.03115701	     -0.03773181
